# xmcd CD database file
#
# Track frame offsets:
#	150
#	19591
#	35024
#	54558
#	68732
#	84956
#	100144
#	121164
#	138020
#	154253
#	169796
#	189062
#	204082
#	218395
#	233729
#	252289
#	266262
#	279596
#	294469
#	308980
#	326075
#	336746
#	350293
#
# Disc length: 4799 seconds
#
# Revision: 0
# Processed by: cddbd v1.5.2PL0 Copyright (c) Steve Scherf et al.
# Submitted via: CDex 1.50
#
DISCID=3e12bd17
DTITLE=Varios - Nostalgia Grupera
DYEAR=2007
DGENRE=Grupero
TTITLE0=Tu última canción
TTITLE1=Nuestra canción
TTITLE2=Para ti con amor
TTITLE3=Pideme la luna
TTITLE4=En realidad
TTITLE5=Tu infame engaño
TTITLE6=Ese loco soy yo
TTITLE7=Te vas con él
TTITLE8=Tu me quieres lastimar
TTITLE9=Era del signo libra
TTITLE10=Ahora pienso más en ti
TTITLE11=Muñeca ojos de miel
TTITLE12=Como me duele
TTITLE13=Loca
TTITLE14=Mi vida eres tu
TTITLE15=La fuerza del destino
TTITLE16=Que no quede huella
TTITLE17=Llegaste tu
TTITLE18=Limosnero de amor
TTITLE19=Amor prohibido
TTITLE20=Nunca voy a olvidarte
TTITLE21=Piensa en mi
TTITLE22=Tu traición
EXTD=YEAR: 2007
EXTT0=
EXTT1=
EXTT2=
EXTT3=
EXTT4=
EXTT5=
EXTT6=
EXTT7=
EXTT8=
EXTT9=
EXTT10=
EXTT11=
EXTT12=
EXTT13=
EXTT14=
EXTT15=
EXTT16=
EXTT17=
EXTT18=
EXTT19=
EXTT20=
EXTT21=
EXTT22=
PLAYORDER=
